<?xml version="1.0" encoding="UTF-8" standalone="no"?>
<!-- Generator: Adobe Illustrator 19.0.0, SVG Export Plug-In . SVG Version: 6.00 Build 0)  -->

<svg
   xmlns:dc="http://purl.org/dc/elements/1.1/"
   xmlns:cc="http://creativecommons.org/ns#"
   xmlns:rdf="http://www.w3.org/1999/02/22-rdf-syntax-ns#"
   xmlns:svg="http://www.w3.org/2000/svg"
   xmlns="http://www.w3.org/2000/svg"
   xmlns:sodipodi="http://sodipodi.sourceforge.net/DTD/sodipodi-0.dtd"
   xmlns:inkscape="http://www.inkscape.org/namespaces/inkscape"
   version="1.1"
   id="Layer_1"
   x="0px"
   y="0px"
   viewBox="0 0 512 512"
   xml:space="preserve"
   sodipodi:docname="angle-up.svg"
   width="512"
   height="512"
   inkscape:version="0.92.4 (f8dce91, 2019-08-02)"><metadata
   id="metadata11"><rdf:RDF><cc:Work
       rdf:about=""><dc:format>image/svg+xml</dc:format><dc:type
         rdf:resource="http://purl.org/dc/dcmitype/StillImage" /><dc:title></dc:title></cc:Work></rdf:RDF></metadata><defs
   id="defs9" /><sodipodi:namedview
   pagecolor="#ffffff"
   bordercolor="#666666"
   borderopacity="1"
   objecttolerance="10"
   gridtolerance="10"
   guidetolerance="10"
   inkscape:pageopacity="0"
   inkscape:pageshadow="2"
   inkscape:window-width="1865"
   inkscape:window-height="1025"
   id="namedview7"
   showgrid="false"
   inkscape:pagecheckerboard="true"
   inkscape:zoom="1.2291667"
   inkscape:cx="174.6723"
   inkscape:cy="251.28898"
   inkscape:window-x="55"
   inkscape:window-y="27"
   inkscape:window-maximized="1"
   inkscape:current-layer="XMLID_2_" />
<style
   type="text/css"
   id="style2">
	.st0{fill:#333333;}
</style>
<g
   id="XMLID_2_"
   transform="translate(0,416)">
	<path
   id="XMLID_4_"
   class="st0"
   d="m 511.96072,-55.58628 c 0,4.645191 -1.85655,8.361343 -5.56975,12.077492 l -25.99239,26.013048 c -3.7132,3.716157 -7.4264,5.574236 -12.0679,5.574236 -4.64149,0 -8.3547,-1.858079 -12.06788,-5.574236 L 256.67842,-220.02594 55.237457,-18.424772 c -2.784898,3.716152 -6.498095,4.645189 -11.139587,4.645189 -4.641499,0 -8.354695,-1.858071 -12.067892,-5.574229 L 6.0375916,-45.366865 c -3.713197,-3.716147 -5.56979545,-7.432297 -5.56979545,-12.077489 0,-4.645183 1.85659845,-8.36134 5.56979545,-12.077486 L 244.61053,-308.28452 c 3.71319,-3.71615 7.42639,-5.57422 12.06789,-5.57422 4.6415,0 8.35471,1.85807 12.06788,5.57422 l 238.57298,238.76268 c 2.78489,5.574223 4.64144,9.29038 4.64144,13.93556 z"
   inkscape:connector-curvature="0"
   style="fill:#ffffff;stroke-width:0.99999988" />
</g>
</svg>