<?xml version="1.0" encoding="UTF-8" standalone="no"?>
<svg
   xmlns:dc="http://purl.org/dc/elements/1.1/"
   xmlns:cc="http://creativecommons.org/ns#"
   xmlns:rdf="http://www.w3.org/1999/02/22-rdf-syntax-ns#"
   xmlns:svg="http://www.w3.org/2000/svg"
   xmlns="http://www.w3.org/2000/svg"
   id="svg4"
   xml:space="preserve"
   enable-background="new 0 0 100 100"
   viewBox="0 0 100 100"
   y="0px"
   x="0px"
   version="1.1"><metadata
     id="metadata10"><rdf:RDF><cc:Work
         rdf:about=""><dc:format>image/svg+xml</dc:format><dc:type
           rdf:resource="http://purl.org/dc/dcmitype/StillImage" /><dc:title></dc:title></cc:Work></rdf:RDF></metadata><defs
     id="defs8" /><path
     style="stroke-width:1.11243141;fill:#4d4d4d"
     id="path2"
     d="m 29.724439,41.32163 c 3.55978,-3.55978 17.576415,-17.576415 17.798901,-17.798902 3.337294,-3.448537 3.337294,-8.788206 0,-12.236744 -3.337294,-3.4485371 -8.89945,-3.4485371 -12.236745,0 -0.222485,0.222487 -32.7054809,32.594238 -32.7054809,32.594238 -3.44853713,3.448537 -3.44853713,9.010693 0,12.236744 0,0 31.9267799,32.038023 32.7054809,32.705483 3.337295,3.337293 8.788208,3.337293 12.236745,0 3.337294,-3.448537 3.337294,-9.010694 0,-12.347988 C 46.855882,75.807002 29.613196,58.675558 29.613196,58.675558 h 61.739939 c 4.783455,0 8.676965,-3.893509 8.676965,-8.676963 0,-4.783455 -3.89351,-8.676965 -8.676965,-8.676965 z" /></svg>