<svg version="1.1" viewBox="0 0 512 512" xmlns="http://www.w3.org/2000/svg">
 <g transform="matrix(16 0 0 16 .011985 .015624)" fill="#f2f2f2">
  <path d="m29.334 3h-4.334v-2a1 1 0 1 0-2 0v2h-6v-2a1 1 0 1 0-2 0v2h-6v-2a1 1 0 1 0-2 0v2h-4.333a2.666 2.666 0 0 0-2.667 2.666v23.667a2.667 2.667 0 0 0 2.667 2.667h26.667a2.666 2.666 0 0 0 2.666-2.667v-23.667a2.665 2.665 0 0 0-2.666-2.666zm0.666 26.333a0.667 0.667 0 0 1-0.666 0.667h-26.667a0.667 0.667 0 0 1-0.667-0.667v-23.667c0-0.367 0.299-0.666 0.667-0.666h4.333v2a1 1 0 1 0 2 0v-2h6v2a1 1 0 1 0 2 0v-2h6v2a1 1 0 1 0 2 0v-2h4.334c0.367 0 0.666 0.299 0.666 0.666z"/>
  <path d="m7 12h4v3h-4zm0 5h4v3h-4zm0 5h4v3h-4zm7 0h4v3h-4zm0-5h4v3h-4zm0-5h4v3h-4zm7 10h4v3h-4zm0-5h4v3h-4zm0-5h4v3h-4z"/>
 </g>
</svg>
