<?xml version="1.0" encoding="UTF-8" standalone="no"?>
<svg
   xmlns:dc="http://purl.org/dc/elements/1.1/"
   xmlns:cc="http://creativecommons.org/ns#"
   xmlns:rdf="http://www.w3.org/1999/02/22-rdf-syntax-ns#"
   xmlns:svg="http://www.w3.org/2000/svg"
   xmlns="http://www.w3.org/2000/svg"
   version="1.1"
   x="0px"
   y="0px"
   viewBox="0 0 512 512"
   enable-background="new 0 0 1000 1000"
   xml:space="preserve"
   id="svg10"
   width="512"
   height="512"><defs
   id="defs14" />
<metadata
   id="metadata2"> Svg Vector Icons : http://www.onlinewebfonts.com/icon <rdf:RDF><cc:Work
     rdf:about=""><dc:format>image/svg+xml</dc:format><dc:type
       rdf:resource="http://purl.org/dc/dcmitype/StillImage" /><dc:title></dc:title></cc:Work></rdf:RDF></metadata>
<g
   id="g8"
   transform="matrix(0.52076059,0,0,0.52076059,-4.193574,-4.524195)"
   style="fill:#4d4d4d;fill-opacity:1"><g
     transform="matrix(0.1,0,0,-0.1,0,386)"
     id="g6"
     style="fill:#4d4d4d;fill-opacity:1"><path
       d="m 791,3744.5 c -255.5,-69 -503.4,-273.4 -618.3,-511 -58.8,-122.7 -69,-176.3 -71.5,-373 0,-411.4 -112.4,-275.9 1862.7,-2253.6 l 1740,-1745.1 -1742.6,-1742.7 C 525.3,-4319.4 208.5,-4649 162.5,-4753.8 c -46,-102.2 -58.8,-176.3 -58.8,-370.5 0,-214.6 7.7,-260.6 69,-385.8 84.3,-173.8 304.1,-388.4 470.2,-459.9 245.3,-104.8 608.1,-84.3 822.7,46 35.8,23 845.7,817.6 1798.8,1768.1 l 1729.8,1727.2 1732.4,-1727.2 c 950.5,-950.5 1760.4,-1745.1 1796.2,-1765.6 35.8,-23 127.8,-58.8 201.9,-81.8 482.9,-143.1 988.8,135.4 1134.5,623.4 23,76.7 40.9,189.1 40.9,255.5 0,132.9 -58.8,357.7 -122.6,457.4 -20.4,35.7 -815.1,845.7 -1765.6,1798.8 L 6284.5,-1138.3 8011.8,594 c 950.5,950.5 1745.2,1760.5 1768.1,1796.2 20.4,35.8 58.8,132.9 84.3,217.2 120.1,416.5 -94.5,879 -500.8,1075.7 -122.6,61.3 -171.2,69 -383.3,69 -194.2,0 -268.3,-12.8 -370.5,-58.8 -104.7,-46 -434.4,-362.8 -1870.3,-1798.8 L 4994.2,152 3249.1,1892 c -1553.5,1551 -1758,1745.2 -1883.2,1798.8 -150.7,63.9 -439.4,89.5 -574.9,53.7 z"
       id="path4"
       style="fill:#4d4d4d;fill-opacity:1" /></g></g>
</svg>