<svg version="1.1" viewBox="0 0 512 512" xmlns="http://www.w3.org/2000/svg">
 <path d="m233.85 22.129c-6.1475 0-11.137 4.9892-11.137 11.137v86.309l-55.684 111.37v-19.489c0-6.1475-4.9892-11.137-11.137-11.137h-144.78c-3.1962 0-6.2366 1.4338-8.3525 3.8282-2.116 2.3944-3.174 5.5266-2.7842 8.7006l33.41 267.28c0.70161 5.5684 5.5238 9.7446 11.137 9.7446h111.37c6.1474 0 11.137-4.9781 11.137-11.137v-11.137h12.877c4.5995 12.963 17.148 22.273 31.67 22.273h211.6c24.568 0 44.547-19.979 44.547-44.547 0-9.1655-2.9011-17.615-7.6565-24.71 17.34-6.0918 29.93-22.711 29.93-42.111 0-10.903-3.9257-20.798-10.441-28.538 12.93-7.8068 21.577-22.112 21.577-38.282 0-10.903-3.9257-20.798-10.441-28.538 12.93-7.8068 21.577-22.101 21.577-38.282 0-24.568-19.979-44.547-44.547-44.547h-162.87c6.7823-21.494 18.097-59.96 18.097-77.957 0-41.919-30.723-100.23-60.904-100.23zm11.137 22.273h17.053c10.212 0 38.63 38.767 38.63 77.957 0 17.462-15.552 67.75-21.577 85.613-1.1582 3.3967-0.7016 7.1748 1.3921 10.093 2.0937 2.9178 5.4626 4.5243 9.0486 4.5243h178.19c12.284 0 22.273 9.9896 22.273 22.273 0 12.284-9.9896 22.273-22.273 22.273h-11.137c-6.1586 0-11.137 4.9781-11.137 11.137s4.9781 11.137 11.137 11.137c12.284 0 22.273 9.9896 22.273 22.273s-9.9896 22.273-22.273 22.273h-11.137c-6.1586 0-11.137 4.9781-11.137 11.137 0 6.1586 4.9781 11.137 11.137 11.137 12.284 0 22.273 9.9896 22.273 22.273s-9.9896 22.273-22.273 22.273h-22.273c-6.1586 0-11.137 4.9781-11.137 11.137 0 6.1586 4.9781 11.137 11.137 11.137 12.284 0 22.273 9.9896 22.273 22.273 0 12.284-9.9896 22.273-22.273 22.273h-211.6c-6.1363 0-11.137-4.9892-11.137-11.137 0-6.1586-4.9892-11.137-11.137-11.137h-22.273v-189.32h5.5684c4.2208 0 8.1994-2.4891 10.093-6.2644l61.252-122.5c0.76843-1.5369 1.0441-3.1461 1.0441-4.8723zm-221.34 178.19h121.11v245.01h-90.486zm82.133 189.32c-9.2259 0-16.705 7.4791-16.705 16.705s7.4791 16.705 16.705 16.705c9.2259 0 16.705-7.4791 16.705-16.705s-7.4791-16.705-16.705-16.705z" fill="#58e71d" fill-rule="evenodd" stroke-width="11.137"/>
</svg>
