<?xml version="1.0" encoding="UTF-8" standalone="no"?>
<!-- Svg Vector Icons : http://www.onlinewebfonts.com/icon -->

<svg
   xmlns:dc="http://purl.org/dc/elements/1.1/"
   xmlns:cc="http://creativecommons.org/ns#"
   xmlns:rdf="http://www.w3.org/1999/02/22-rdf-syntax-ns#"
   xmlns:svg="http://www.w3.org/2000/svg"
   xmlns="http://www.w3.org/2000/svg"
   xmlns:sodipodi="http://sodipodi.sourceforge.net/DTD/sodipodi-0.dtd"
   xmlns:inkscape="http://www.inkscape.org/namespaces/inkscape"
   version="1.1"
   x="0px"
   y="0px"
   viewBox="0 0 1000 1000"
   enable-background="new 0 0 1000 1000"
   xml:space="preserve"
   id="svg10"
   sodipodi:docname="search-icon.svg"
   inkscape:version="0.92.4 (f8dce91, 2019-08-02)"><defs
   id="defs14" /><sodipodi:namedview
   pagecolor="#ffffff"
   bordercolor="#666666"
   borderopacity="1"
   objecttolerance="10"
   gridtolerance="10"
   guidetolerance="10"
   inkscape:pageopacity="0"
   inkscape:pageshadow="2"
   inkscape:window-width="1473"
   inkscape:window-height="657"
   id="namedview12"
   showgrid="false"
   inkscape:zoom="0.236"
   inkscape:cx="-6.3559322"
   inkscape:cy="500"
   inkscape:window-x="55"
   inkscape:window-y="27"
   inkscape:window-maximized="0"
   inkscape:current-layer="svg10" />
<metadata
   id="metadata2"> Svg Vector Icons : http://www.onlinewebfonts.com/icon <rdf:RDF><cc:Work
     rdf:about=""><dc:format>image/svg+xml</dc:format><dc:type
       rdf:resource="http://purl.org/dc/dcmitype/StillImage" /><dc:title></dc:title></cc:Work></rdf:RDF></metadata>
<g
   id="g8"><path
     fill="#ffffff"
     d="M432.5,855C199.5,855,10,665.5,10,432.5C10,199.6,199.5,10,432.5,10S855,199.6,855,432.5C855,665.5,665.5,855,432.5,855 M432.5,114C256.9,114,114,256.9,114,432.5C114,608.2,256.9,751,432.5,751C608.1,751,751,608.2,751,432.5C751,256.9,608.1,114,432.5,114"
     id="path4" /><path
     fill="#ffffff"
     d="M926,990c-16.4,0-32.8-6.3-45.3-18.7L660,750.5c-25-25-25-65.5,0-90.5c25-25,65.5-25,90.5,0l220.7,220.7c25,25,25,65.5,0,90.5C958.8,983.7,942.4,990,926,990"
     id="path6" /></g>
</svg>
