<?xml version="1.0" encoding="UTF-8" standalone="no"?>
<svg
   xmlns:dc="http://purl.org/dc/elements/1.1/"
   xmlns:cc="http://creativecommons.org/ns#"
   xmlns:rdf="http://www.w3.org/1999/02/22-rdf-syntax-ns#"
   xmlns:svg="http://www.w3.org/2000/svg"
   xmlns="http://www.w3.org/2000/svg"
   id="svg4"
   version="1.1"
   viewBox="0 0 512 512"
   role="img"
   class="svg-inline--fa fa-tag fa-w-16"
   data-icon="tag"
   data-prefix="fas"
   focusable="false"
   aria-hidden="true">
  <metadata
     id="metadata10">
    <rdf:RDF>
      <cc:Work
         rdf:about="">
        <dc:format>image/svg+xml</dc:format>
        <dc:type
           rdf:resource="http://purl.org/dc/dcmitype/StillImage" />
        <dc:title></dc:title>
      </cc:Work>
    </rdf:RDF>
  </metadata>
  <defs
     id="defs8" />
  <path
     style="fill:#fc4c4c;fill-opacity:1"
     id="path2"
     d="M 511.99975,252.118 V 48 c 0,-26.51 -21.49,-48 -48,-48 h -204.118 a 48,48 0 0 0 -33.941,14.059 l -211.882,211.882 c -18.745,18.745 -18.745,49.137 0,67.882 l 204.118,204.118 c 18.745,18.745 49.137,18.745 67.882,0 l 211.882,-211.882 a 48,48 0 0 0 14.059,-33.941 z M 399.99975,64 c 26.51,0 48,21.49 48,48 0,26.51 -21.49,48 -48,48 -26.51,0 -48,-21.49 -48,-48 0,-26.51 21.49,-48 48,-48 z" />
</svg>
