<svg xmlns="http://www.w3.org/2000/svg" width="110" height="68"><g fill="#FBAE17"><path d="M11.664 55.108v-2.344c5.587-3.883 8.38-7.008 8.38-9.375 0-1.641-1.017-2.461-3.048-2.461-1.718 0-3.34.43-4.862 1.289v-2.813c1.522-.781 3.145-1.172 4.862-1.172 4.102 0 6.153 1.641 6.153 4.922 0 2.891-2.238 5.977-6.715 9.258h6.715v2.695h-11.485zM36.59 55.108h-3.104v-3.633h-8.462v-2.344l6.856-10.781h3.328l-6.633 10.664h4.91v-5.602h3.104v5.602l1.734 1.594v.867h-1.733v3.633zM50.857 42.804h3.281l2.988 8.602 3.105-8.602h3.281l-5.002 12.304h-2.953l-4.7-12.304zM68.084 38.351v2.461h-3.105v-2.461h3.105zm0 4.453v12.305h-3.105v-12.305h3.105zM81.912 54.37c-1.883.492-3.723.738-5.52.738-3.977 0-5.965-2.133-5.965-6.398 0-3.938 1.945-5.906 5.836-5.906.828 0 1.676.195 2.543.586v-5.039h3.105v16.019zm-3.105-8.355c-.641-.422-1.445-.633-2.414-.633-1.93 0-2.895 1.082-2.895 3.246 0 2.57 1.004 3.855 3.012 3.855.813 0 1.578-.113 2.297-.34v-6.128zM90.033 42.804c3.734 0 5.602 1.906 5.602 5.719 0 .508-.035 1.016-.105 1.523h-8.168c0 1.734 1.273 2.602 3.82 2.602 1.242 0 2.484-.117 3.727-.352v2.461c-1.086.234-2.406.352-3.961.352-4.461 0-6.691-2.098-6.691-6.293-.001-4.008 1.925-6.012 5.776-6.012zm-2.672 5.086h5.25v-.094c0-1.703-.859-2.555-2.578-2.555-1.64 0-2.531.883-2.672 2.649zM97.381 48.956c0-4.125 2.031-6.188 6.094-6.188s6.094 2.063 6.094 6.188c0 4.117-2.031 6.176-6.094 6.176-4.047 0-6.079-2.059-6.094-6.176zm6.094 3.809c1.992 0 2.988-1.285 2.988-3.855 0-2.508-.996-3.762-2.988-3.762s-2.988 1.254-2.988 3.762c-.001 2.569.995 3.855 2.988 3.855zM40.602 26.616l-5.113.652c-2.719-.777-5.832-1.18-9.154-1.143l1.975-20.03c1.137-.377 1.884-1.518 1.728-2.752-.178-1.4-1.461-2.393-2.863-2.213s-2.395 1.461-2.215 2.863c.145 1.125 1.002 1.975 2.061 2.178l-1.973 19.99c-1.043.047-2.104.127-3.178.266-.887.113-1.752.266-2.605.434l-6.238-11.596c.836-.512 1.344-1.475 1.211-2.508-.182-1.402-1.461-2.395-2.863-2.215-1.402.178-2.395 1.461-2.217 2.861.168 1.309 1.297 2.246 2.588 2.223l6.189 11.516c-3.41.799-5.951 1.464-8.501 2.967l-5.647 1.207c-2.092.268-3.59 2.199-3.322 4.295l3.566 27.928c.268 2.096 2.197 3.59 4.295 3.322l36.816-4.697c2.093-.27 3.588-2.203 3.32-4.297l-3.566-27.928c-.269-2.096-2.201-3.59-4.294-3.323zm3.611 28.268c.279 3.225-.652 3.764-3.938 4.639l-26.02 2.713c-3.813.484-6.297 2.287-6.764-1.365l-2.911-21.763c-.465-3.652 1.101-4.854 4.912-5.338l23-2.662c7.578-.611 9.559.127 9.25 4l2.471 19.776z"/></g></svg>